<svg version="1.1"
     xmlns="http://www.w3.org/2000/svg"
     xmlns:xlink="http://www.w3.org/1999/xlink"
     preserveAspectRatio="xMidYMid meet"
     viewBox="0 0 640 640"
     width="640"
     height="640">
    <defs>
        <path d="M640 640L0 640L0 614.28C31.59 593.91 55.39 573.8 71.4 553.95C87.41 534.1 95.64 500.01 96.07 451.68C111.22 545.53 147.15 592.58 203.85 592.83C260.56 593.08 294.97 518.31 307.09 368.52C333.49 513.38 374.83 585.13 431.1 583.76C487.37 582.4 520.05 540.97 529.14 459.47C537.8 490.57 550.57 518.6 567.45 543.56C584.33 568.53 608.52 592.1 640 614.28L640 640Z"
              id="b1PMyW9Ut"/>
        <path d="M118.47 444.08C118.47 456.44 108.43 466.48 96.07 466.48C83.71 466.48 73.67 456.44 73.67 444.08C73.67 431.72 83.71 421.68 96.07 421.68C108.43 421.68 118.47 431.72 118.47 444.08Z"
              id="c2cd19lQPv"/>
        <path d="M340.85 368.52C340.85 387.69 325.72 403.26 307.09 403.26C288.45 403.26 273.33 387.69 273.33 368.52C273.33 349.35 288.45 333.78 307.09 333.78C325.72 333.78 340.85 349.35 340.85 368.52Z"
              id="a6vkbJe5p"/>
        <path d="M549.92 463.56C549.92 474.31 541.34 483.04 530.77 483.04C520.2 483.04 511.61 474.31 511.61 463.56C511.61 452.81 520.2 444.08 530.77 444.08C541.34 444.08 549.92 452.81 549.92 463.56Z"
              id="a2fPrzAQ1r"/>
    </defs>
    <g>
        <g>
            <g>
                <g>
                    <use xlink:href="#b1PMyW9Ut" fill-opacity="1"/>
                </g>
            </g>
            <g>
                <use xlink:href="#c2cd19lQPv"
                     opacity="1"
                     fill="#fff"
                     fill-opacity="1"/>
            </g>
            <g>
                <use xlink:href="#a6vkbJe5p"
                     opacity="1"
                     fill="#fff"
                     fill-opacity="1"/>
            </g>
            <g>
                <use xlink:href="#a2fPrzAQ1r"
                     opacity="1"
                     fill="#fff"
                     fill-opacity="1"/>
            </g>
        </g>
    </g>
</svg>